<?xml version="1.0" standalone="no"?>
<!DOCTYPE svg PUBLIC "-//W3C//DTD SVG 1.1//EN" "http://www.w3.org/Graphics/SVG/1.1/DTD/svg11.dtd" >
<!--
2013-9-30: Created.
-->
<svg>
<metadata>
Created by iconfont
</metadata>
<defs>

<font id="iconfont" horiz-adv-x="1024" >
  <font-face
    font-family="iconfont"
    font-weight="500"
    font-stretch="normal"
    units-per-em="1024"
    ascent="896"
    descent="-128"
  />
    <missing-glyph />
    
    <glyph glyph-name="icon-play-01" unicode="&#59120;" d="M307.2 742.4c30.72 0 51.2-20.48 51.2-51.2v-614.4c0-30.72-20.48-51.2-51.2-51.2s-51.2 20.48-51.2 51.2V691.2c0 30.72 20.48 51.2 51.2 51.2z m409.6 0c30.72 0 51.2-20.48 51.2-51.2v-614.4c0-30.72-20.48-51.2-51.2-51.2s-51.2 20.48-51.2 51.2V691.2c0 30.72 20.48 51.2 51.2 51.2z"  horiz-adv-x="1024" />

    
    <glyph glyph-name="icon-pause-01" unicode="&#59119;" d="M337.92 742.4l471.04-312.32c25.6-15.36 30.72-46.08 15.36-71.68l-15.36-15.36L337.92 25.6c-25.6-15.36-56.32-10.24-71.68 15.36-5.12 10.24-10.24 20.48-10.24 30.72V696.32c0 30.72 20.48 51.2 51.2 51.2 10.24 0 20.48 0 30.72-5.12z"  horiz-adv-x="1024" />

    
    <glyph glyph-name="icon-yuanxing" unicode="&#59118;" d="M512 643.413333a259.413333 259.413333 0 1 0 0-518.826666 259.413333 259.413333 0 0 0 0 518.826666z m0-40.96a218.453333 218.453333 0 1 1 0-436.906666 218.453333 218.453333 0 0 1 0 436.906666z"  horiz-adv-x="1024" />

    
    <glyph glyph-name="icon-zhijiaosanjiaoxing" unicode="&#59112;" d="M283.306667 628.9408a30.72 30.72 0 0 0 21.7088-9.0112l477.047466-477.047467a30.72 30.72 0 0 0-21.7088-52.4288H283.306667a30.72 30.72 0 0 0-30.72 30.72V598.2208a30.72 30.72 0 0 0 30.72 30.72z m10.24-55.466667V131.413333h442.0608L293.546667 573.474133z"  horiz-adv-x="1024" />

    
    <glyph glyph-name="icon-changfangxing" unicode="&#59113;" d="M716.8 575.146667a54.613333 54.613333 0 0 0 54.613333-54.613334v-307.2a54.613333 54.613333 0 0 0-54.613333-54.613333H307.2A54.613333 54.613333 0 0 0 252.586667 213.333333v307.2A54.613333 54.613333 0 0 0 307.2 575.146667h409.6z m0-40.96H307.2a13.653333 13.653333 0 0 1-13.653333-13.653334v-307.2c0-7.509333 6.144-13.653333 13.653333-13.653333h409.6a13.653333 13.653333 0 0 1 13.653333 13.653333v307.2a13.653333 13.653333 0 0 1-13.653333 13.653334z"  horiz-adv-x="1024" />

    
    <glyph glyph-name="icon-zhengfangxing" unicode="&#59114;" d="M682.666667 609.28a54.613333 54.613333 0 0 0 54.613333-54.613333v-341.333334a54.613333 54.613333 0 0 0-54.613333-54.613333H341.333333A54.613333 54.613333 0 0 0 286.72 213.333333V554.666667A54.613333 54.613333 0 0 0 341.333333 609.28h341.333334z m0-40.96H341.333333a13.653333 13.653333 0 0 1-13.653333-13.653333v-341.333334c0-7.509333 6.144-13.653333 13.653333-13.653333h341.333334a13.653333 13.653333 0 0 1 13.653333 13.653333V554.666667a13.653333 13.653333 0 0 1-13.653333 13.653333z"  horiz-adv-x="1024" />

    
    <glyph glyph-name="icon-shuangxiangjiantou" unicode="&#59115;" d="M789.504 654.506667l-57.309867-210.158934-61.917866 61.952-252.450134-252.416 61.952-61.952-210.158933-57.344 57.309867 210.193067 61.952-61.952 252.416 252.416-61.952 61.952 210.193066 57.344z"  horiz-adv-x="1024" />

    
    <glyph glyph-name="icon-danxiangjiantou" unicode="&#59116;" d="M605.0816 481.962667l28.9792-28.945067-310.340267-310.340267a20.48 20.48 0 1 0-28.9792 28.945067l310.340267 310.3744z m148.241067 119.296l-57.344-210.193067-152.849067 152.849067 210.193067 57.344z"  horiz-adv-x="1024" />

    
    <glyph glyph-name="icon-sanjiaoxing" unicode="&#59117;" d="M240.5376 224.494933l0.273067 4.5056a37.546667 37.546667 0 0 0 6.2464 16.622934L482.645333 592.008533a37.546667 37.546667 0 0 0 62.122667 0l235.588267-346.385066a37.546667 37.546667 0 0 0-31.061334-58.6752H278.1184a37.546667 37.546667 0 0 0-37.2736 33.1776l-0.273067 4.369066z m502.340267 3.413334l-229.1712 336.896-229.1712-336.896h458.3424z"  horiz-adv-x="1024" />

    
    <glyph glyph-name="raise-hand" unicode="&#59023;" d="M833.2288 25.600000000000023a30.72 30.72 0 0 0 0-61.44H366.9504a30.72 30.72 0 0 0 0 61.44h466.2784zM539.6992 793.6c28.16 0 57.4464-12.6976 75.3152-32.9216l5.0176-6.2976 8.0896 3.4816c25.3952 9.0624 65.1264 7.8848 86.9376-3.3792 27.9552-14.4896 49.3056-37.2224 49.3056-65.8432v-16.4352c7.6288 1.6384 15.9232 2.5088 24.9344 2.5088 57.0368 0 91.4944-28.9792 91.4944-75.2128v-375.552c0-84.3264-72.704-157.44-160.6144-157.44H475.2896c-37.376 0-73.1648 16.4352-106.7008 44.5952l-9.0624 7.9872-51.4048 54.016-42.7008 45.568-40.5504 44.1344c-28.7232 31.7952-47.36 53.8624-54.528 65.2288-53.4016 84.5824 31.2832 155.0848 108.4928 106.4448 3.4304-2.1504 8.6528-6.912 18.688-16.9984l25.1904-25.9072v252.416c0 43.264 48.128 75.264 92.8768 75.264 6.5024 0 13.056-0.6656 19.456-1.9968l9.5232-2.4064V718.336c0 43.4176 50.0224 75.264 95.1296 75.264z m0-61.44c-24.1152 0-33.6896-18.4832-33.6896-20.6848v-169.8816c0-40.96-61.44-40.96-61.44 0v9.7792c-0.1536 26.0096-0.6144 95.232-3.4816 107.3664-27.1872 11.3664-56.9344 0-56.9344-14.7456v-329.1136a30.72 30.72 0 0 0-49.5104-24.32l-3.5328 3.2256-34.5088 36.2496-50.5344 52.4288c-25.2416 15.872-39.7824 3.7888-23.7568-21.6064l3.6352-5.1712c9.5232-12.544 32-38.144 63.0272-72.0384l42.24-45.5168 71.1168-75.0592c24.4224-22.2208 49.9712-35.072 72.96-35.072h244.7872c53.9136 0 99.1744 45.5168 99.1744 96V599.552c0 9.6768-14.336 15.1552-25.3952 15.1552s-26.2656-2.56-27.2896-12.4928c0 0-2.2528-102.1952-2.2528-113.2032 0-40.96-61.44-40.96-61.44 0V688.64c0-0.5632-6.7072 17.9712-30.5152 20.4288-23.808 2.4576-31.8464-5.7344-38.3488-9.1136 0-5.4784-1.9456-114.432-1.9456-113.7152 0-40.96-61.44-40.96-61.44 0V711.4752c0 2.9184-6.8096 20.6848-30.9248 20.6848z"  horiz-adv-x="1024" />

    
    <glyph glyph-name="fasong_icon" unicode="&#59060;" d="M947.2 784.7424l-0.0512-1.2288-0.0768-1.152-0.1792-1.536a23.2704 23.2704 0 0 0-0.3328-2.2784l-0.0512-0.0256-160.4864-802.3552a33.9712 33.9712 0 0 0-53.7088-20.5312l-265.856 199.3728-128.9984-154.112c-19.6864-23.5008-57.3184-10.88-59.904 18.5856l-0.128 3.2256V296.8064l-187.008 140.2368a33.9712 33.9712 0 0 0 7.7568 58.7264L900.5568 816.7168A34.0224 34.0224 0 0 0 947.2 784.7424z m-85.632-84.608L373.3248 309.5808l356.6336-267.4688 131.6096 658.0224zM345.3696 245.8112v-129.5872l66.6368 79.616-66.6368 49.9712z m367.4624 422.4L179.5584 454.912l137.6256-103.2192L712.832 668.2112zM947.2 784.7424l-0.0512-1.2288-0.0768-1.152-0.1792-1.536a23.2704 23.2704 0 0 0-0.3328-2.2784l-0.0512-0.0256-160.4864-802.3552a33.9712 33.9712 0 0 0-53.7088-20.5312l-265.856 199.3728-128.9984-154.112c-19.6864-23.5008-57.3184-10.88-59.904 18.5856l-0.128 3.2256V296.8064l-187.008 140.2368a33.9712 33.9712 0 0 0 7.7568 58.7264L900.5568 816.7168A34.0224 34.0224 0 0 0 947.2 784.7424z m-85.632-84.608L373.3248 309.5808l356.6336-267.4688 131.6096 658.0224zM345.3696 245.8112v-129.5872l66.6368 79.616-66.6368 49.9712z m367.4624 422.4L179.5584 454.912l137.6256-103.2192L712.832 668.2112z"  horiz-adv-x="1024" />

    
    <glyph glyph-name="icon-pingmuqiehuan" unicode="&#59111;" d="M288 478.492444a17.066667 17.066667 0 0 0 17.066667-17.066666v-224c0-25.912889 21.020444-46.933333 46.933333-46.933334h257.934222a17.066667 17.066667 0 1 0 0-34.133333h-257.934222a81.066667 81.066667 0 0 0-81.066667 81.066667v224a17.066667 17.066667 0 0 0 17.066667 17.066666zM711.111111 593.066667a73.955556 73.955556 0 0 0 73.955556-73.955556v-206.222222a73.955556 73.955556 0 0 0-73.955556-73.955556h-270.222222a73.955556 73.955556 0 0 0-73.955556 73.955556v206.222222a73.955556 73.955556 0 0 0 73.955556 73.955556H711.111111z m0-34.133334h-270.222222a39.822222 39.822222 0 0 1-39.822222-39.822222v-206.222222a39.822222 39.822222 0 0 1 39.822222-39.822222H711.111111a39.822222 39.822222 0 0 1 39.822222 39.822222v206.222222a39.822222 39.822222 0 0 1-39.822222 39.822222z"  horiz-adv-x="1024" />

    
    <glyph glyph-name="icon-shuaxin" unicode="&#59109;" d="M827.076923 856.615385a39.384615 39.384615 0 0 0 39.384615-39.384616v-236.307692a39.384615 39.384615 0 0 0-39.384615-39.384615H590.769231a39.384615 39.384615 0 0 0 0 78.76923h143.990154A354.461538 354.461538 0 1 1 866.461538 344.615385a39.384615 39.384615 0 1 0 78.769231 0A433.230769 433.230769 0 1 0 512 777.846154c102.242462 0 199.128615-35.603692 274.432-98.067692l1.260308-0.945231V817.230769a39.384615 39.384615 0 0 0 32.295384 38.754462z"  horiz-adv-x="1024" />

    
    <glyph glyph-name="icon-xueyuanguanli" unicode="&#59110;" d="M781.610667 443.136a46.933333 46.933333 0 0 0 46.933333-46.933333v-12.928c3.413333-1.877333 6.741333-3.84 10.026667-5.888l11.264 6.485333a46.933333 46.933333 0 0 0 64.128-17.152l42.666666-73.898667a46.933333 46.933333 0 0 0-17.152-64.128l-12.074666-6.997333 0.085333-5.333333-0.085333-5.333334 12.032-6.954666a46.933333 46.933333 0 0 0 17.194666-64.128l-42.666666-73.898667a46.933333 46.933333 0 0 0-64.128-17.152l-11.264 6.485333a190.037333 190.037333 0 0 0-10.026667-5.888v-12.928a46.933333 46.933333 0 0 0-46.933333-46.933333h-85.333334a46.933333 46.933333 0 0 0-46.933333 46.933333v11.178667a189.952 189.952 0 0 0-11.733333 6.656l-9.6-5.546667a46.933333 46.933333 0 0 0-64.128 17.194667l-42.666667 73.898667a46.933333 46.933333 0 0 0 17.194667 64.128l8.832 5.12-0.128 7.168 0.128 7.210666-8.832 5.12a46.933333 46.933333 0 0 0-17.194667 64.128l42.666667 73.898667a46.933333 46.933333 0 0 0 64.128 17.152l9.6-5.546667 5.802666 3.456 5.888 3.242667v11.178667a46.933333 46.933333 0 0 0 46.933334 46.933333h85.333333zM437.589333 836.266667A226.730667 226.730667 0 1 0 385.706667 388.736a357.674667 357.674667 0 0 1-68.266667-26.794667c-102.698667-54.869333-163.328-150.656-163.328-258.688v-0.981333l-0.512-7.296a52.992 52.992 0 0 1 52.053333-53.717333H512a25.6 25.6 0 0 0 0-51.2H205.354667A104.277333 104.277333 0 0 0 102.4 95.744l0.512 7.509333c0 127.402667 71.466667 240.256 190.378667 303.829334 7.253333 3.84 14.805333 7.509333 22.741333 11.008a226.730667 226.730667 0 0 0 121.557333 418.133333z m339.754667-444.330667h-76.8l-0.042667-23.253333a25.6 25.6 0 0 0-15.914666-23.68 138.752 138.752 0 0 1-30.549334-17.322667 25.6 25.6 0 0 0-28.16-1.706667l-19.754666 11.434667-38.4-66.517333 19.2-11.093334a25.6 25.6 0 0 0 12.544-25.429333 140.544 140.544 0 0 1 0-36.010667 25.6 25.6 0 0 0-12.586667-25.429333l-19.2-11.093333 38.4-66.474667 19.84 11.434667a25.6 25.6 0 0 0 28.16-1.706667c9.386667-7.04 19.626667-12.885333 30.506667-17.365333a25.6 25.6 0 0 0 15.914666-23.637334v-23.253333h76.8l0.042667 24.618667a25.6 25.6 0 0 0 15.36 23.466666c10.368 4.48 20.053333 10.24 29.013333 17.066667a25.6 25.6 0 0 0 28.416 1.877333l21.632-12.501333 38.4 66.517333-22.229333 12.8a25.6 25.6 0 0 0-12.629333 25.173334 140.672 140.672 0 0 1 0 33.024 25.6 25.6 0 0 0 12.586666 25.173333l22.272 12.842667-38.4 66.517333-21.632-12.501333a25.6 25.6 0 0 0-28.373333 1.834666 138.837333 138.837333 0 0 1-29.013333 17.109334 25.6 25.6 0 0 0-15.36 23.466666l-0.042667 24.618667z m-38.442667-91.818667a83.626667 83.626667 0 1 0 0-167.338666 83.626667 83.626667 0 0 0 0 167.338666z m0-51.2a32.426667 32.426667 0 1 1 0-64.938666 32.426667 32.426667 0 0 1 0 64.938666zM437.589333 785.066667a175.530667 175.530667 0 1 1 0-351.104 175.530667 175.530667 0 0 1 0 351.104z"  horiz-adv-x="1024" />

    
    <glyph glyph-name="icon-zhuchirenqumaikefengkaiqi" unicode="&#59103;" d="M736 371.2a19.2 19.2 0 0 0 19.2-19.2c0-55.424-23.072-107.456-63.52-146.496-37.44-36.16-87.328-58.784-141.344-63.68 0.064-0.32 0.064-0.672 0.064-1.024v-25.6a19.2 19.2 0 0 0-38.4 0V141.312c-117.76 7.616-211.2 98.72-211.2 210.688a19.2 19.2 0 0 0 38.4 0c0-95.072 84.192-172.8 188.8-172.8 52.576 0 101.6 19.744 137.024 53.952C698.112 265.088 716.8 307.2 716.8 352a19.2 19.2 0 0 0 19.2 19.2z m-208 256a163.2 163.2 0 0 0 163.2-163.2v-96a163.2 163.2 0 0 0-326.4 0v96a163.2 163.2 0 0 0 163.2 163.2z m0-38.4a124.8 124.8 0 0 1-124.8-124.8v-96a124.8 124.8 0 0 1 249.6 0v96a124.8 124.8 0 0 1-124.8 124.8z"  horiz-adv-x="1024" />

    
    <glyph glyph-name="icon-zhuchirenqumaikefengguanbi" unicode="&#59104;" d="M528 627.2a163.2 163.2 0 0 0 163.2-163.2v-96c0-42.24-16-80.672-42.336-109.664l20.672-20.672c30.272 31.36 47.264 71.648 47.264 114.336a19.2 19.2 0 0 0 38.4 0c0-55.424-23.072-107.456-63.52-146.496l4.96 5.024 44.224-44.256a19.2 19.2 0 0 0 2.24-24.48l-2.24-2.656a19.2 19.2 0 0 0-27.136 0L667.52 185.28a236.064 236.064 0 0 0-117.184-43.456c0.064-0.32 0.064-0.64 0.064-1.024v-25.6a19.2 19.2 0 0 0-38.4 0v25.6l0.032 0.512C394.272 148.928 300.8 240.032 300.8 352a19.2 19.2 0 0 0 38.4 0c0-95.072 84.192-172.8 188.8-172.8 41.088 0 80 12.064 111.968 33.664l-20.16 20.16A163.2 163.2 0 0 0 364.8 368l0.032 96.032c0 7.648 0.512 15.136 1.536 22.496l-59.904 59.936a19.2 19.2 0 0 0 27.136 27.136l44.672-44.608A163.232 163.232 0 0 0 528 627.2z m-124.8-177.568V368a124.8 124.8 0 0 1 188.8-107.168l-188.8 188.8zM528 588.8a124.864 124.864 0 0 1-119.84-89.824l213.504-213.44c19.392 21.984 31.136 50.88 31.136 82.464v96a124.8 124.8 0 0 1-124.8 124.8z"  horiz-adv-x="1024" />

    
    <glyph glyph-name="icon-zhuchirenqupingmuqiehuan" unicode="&#59105;" d="M288 480.64a19.2 19.2 0 0 0 19.2-19.2v-224a44.8 44.8 0 0 1 44.8-44.8h257.92a19.2 19.2 0 1 0 0-38.4H352a83.2 83.2 0 0 0-83.2 83.2v224a19.2 19.2 0 0 0 19.2 19.2zM704 595.2a83.2 83.2 0 0 0 83.2-83.2v-192a83.2 83.2 0 0 0-83.2-83.2h-256a83.2 83.2 0 0 0-83.2 83.2v192A83.2 83.2 0 0 0 448 595.2h256z m0-38.4h-256a44.8 44.8 0 0 1-44.8-44.8v-192a44.8 44.8 0 0 1 44.8-44.8h256a44.8 44.8 0 0 1 44.8 44.8v192a44.8 44.8 0 0 1-44.8 44.8z"  horiz-adv-x="1024" />

    
    <glyph glyph-name="icon-zhuchirenqushexiangtouguanbi" unicode="&#59106;" d="M279.392 614.976L682.176 212.16a19.2 19.2 0 1 0-27.168-27.168L252.224 587.84a19.2 19.2 0 1 0 27.168 27.168z m-27.904-50.4l28.352-28.32A25.6 25.6 0 0 1 262.4 512v-256a25.6 25.6 0 0 1 25.6-25.6h288c2.88 0 5.696 0.48 8.288 1.376l28.32-28.288A63.68 63.68 0 0 0 576 192H288a64 64 0 0 0-64 64v256c0 21.76 10.88 41.024 27.488 52.576z m541.984-80.256l3.136-3.52 2.816-3.84c5.248-7.904 8.064-17.216 8.064-26.816v-133.408a48.96 48.96 0 0 0-78.976-38.688l-35.616 27.616a51.2 51.2 0 0 0-19.84 40.448v72.64a51.2 51.2 0 0 0 18.944 39.744l36.16 29.408a48.64 48.64 0 0 0 65.28-3.584zM576 576a64 64 0 0 0 64-64v-227.296l-38.4 38.4V512a25.6 25.6 0 0 1-25.6 25.6h-188.928L348.64 576H576z m176.384-117.888l-36.16-29.408a12.8 12.8 0 0 1-4.736-9.92v-72.64a12.8 12.8 0 0 1 4.96-10.144l35.616-27.616a10.56 10.56 0 0 1 17.024 8.352v133.44a10.24 10.24 0 0 1-1.056 4.48l-1.248 1.952-1.696 1.664a10.24 10.24 0 0 1-12.704-0.16z"  horiz-adv-x="1024" />

    
    <glyph glyph-name="icon-zhuchirenququanping" unicode="&#59107;" d="M320 377.568a19.2 19.2 0 0 0 19.2-19.2v-119.968l108.256 108.224a19.2 19.2 0 0 0 24.48 2.208l2.688-2.24a19.2 19.2 0 0 0 0-27.136l-108.256-108.224 117.408-0.032a19.2 19.2 0 0 0 18.944-16.096l0.256-3.104a19.2 19.2 0 0 0-19.2-19.2H300.8v185.568a19.2 19.2 0 0 0 19.2 19.2zM723.2 595.2v-187.2a19.2 19.2 0 1 0-38.4 0v114.688l-121.376-120.544a19.2 19.2 0 0 0-24.512-2.112l-2.656 2.24a19.2 19.2 0 0 0 0.128 27.136l128.32 127.424-125.216-0.032a19.2 19.2 0 0 0-18.944 16.096L520.32 576a19.2 19.2 0 0 0 19.2 19.2H723.2z"  horiz-adv-x="1024" />

    
    <glyph glyph-name="icon-zhuchirenqushexiangtoukaiqi" unicode="&#59108;" d="M576 576a64 64 0 0 0 64-64v-256a64 64 0 0 0-64-64H288a64 64 0 0 0-64 64v256a64 64 0 0 0 64 64h288z m0-38.4H288a25.6 25.6 0 0 1-25.6-25.6v-256a25.6 25.6 0 0 1 25.6-25.6h288a25.6 25.6 0 0 1 25.6 25.6v256a25.6 25.6 0 0 1-25.6 25.6z m217.472-53.28l3.136-3.52 2.816-3.84c5.248-7.904 8.064-17.216 8.064-26.816v-133.408a48.96 48.96 0 0 0-78.976-38.688l-35.616 27.616a51.2 51.2 0 0 0-19.84 40.448v72.64a51.2 51.2 0 0 0 18.944 39.744l36.16 29.408a48.64 48.64 0 0 0 65.28-3.584z m-41.088-26.24l-36.16-29.376a12.8 12.8 0 0 1-4.736-9.92v-72.64a12.8 12.8 0 0 1 4.96-10.144l35.616-27.616a10.56 10.56 0 0 1 17.024 8.352v133.44a10.24 10.24 0 0 1-1.056 4.48l-1.248 1.952-1.696 1.664a10.24 10.24 0 0 1-12.704-0.16z"  horiz-adv-x="1024" />

    
    <glyph glyph-name="icon-jinyan" unicode="&#59101;" d="M122.112 614.08l55.68-55.744A305.984 305.984 0 0 1 134.4 401.408c0-91.456 40.96-177.024 112.256-238.72 15.744-13.696 20.096-34.112 18.048-87.616l-1.28-24.96 134.592 33.536a38.4 38.4 0 0 0 18.048 0.192c30.336-7.104 55.68-10.56 75.52-10.56 51.2 0 99.84 9.856 143.744 27.584l58.112-58.048a457.408 457.408 0 0 0-201.792-46.336c-24.192 0-52.032 3.52-83.84 10.496l-176.96-44.224a38.4 38.4 0 0 0-47.616 40.128l2.368 34.176c0.96 15.808 1.6 29.568 1.92 41.344l0.32 17.728-0.32 13.888-0.192 2.816-6.528 5.952C102.592 193.536 57.6 294.144 57.6 401.408c0 78.144 23.68 150.976 64.512 212.672z m64.96-497.344l0.256-3.904 6.784-6.336-1.728 1.728-2.56 2.752a11.072 11.072 0 0 0-2.752 5.76zM491.648 806.4c239.104 0 434.048-180.608 434.048-404.992 0-102.208-40.512-195.328-107.2-266.496l-54.4 54.4c52.928 57.28 84.8 131.392 84.8 212.096 0 180.608-159.36 328.192-357.248 328.192a377.152 377.152 0 0 1-207.104-60.8l-55.232 55.296A452.992 452.992 0 0 0 491.648 806.4z m-400.896-58.752a38.4 38.4 0 0 0 54.336 0L860.096 32.64a38.4 38.4 0 0 0-54.336-54.336L90.752 693.312a38.4 38.4 0 0 0 0 54.336z"  horiz-adv-x="1024" />

    
    <glyph glyph-name="icon-zengjiawendang" unicode="&#59102;" d="M512 859.858824a36.141176 36.141176 0 0 0 36.141176-36.141177v-409.539765L957.741176 414.117647a36.141176 36.141176 0 0 0 0-72.282353l-409.6 0.060235V-67.764706a36.141176 36.141176 0 0 0-72.282352 0V341.895529L66.258824 341.835294A36.141176 36.141176 0 1 0 66.258824 414.117647l409.539764 0.060235L475.858824 823.717647A36.141176 36.141176 0 0 0 512 859.858824z"  horiz-adv-x="1024" />

    
    <glyph glyph-name="icon-maikefengguanbi" unicode="&#59098;" d="M512 853.333333a272.384 272.384 0 0 0 272.384-272.384V384c0-63.146667-21.504-121.344-57.6-167.594667l42.24-42.069333c39.509333 48.384 61.354667 106.922667 61.354667 168.448a42.666667 42.666667 0 0 0 85.333333 0c0-84.565333-30.976-164.693333-86.186667-229.12l73.642667-73.642667a42.666667 42.666667 0 0 0-60.330667-60.330666l-75.690666 75.605333a420.693333 420.693333 0 0 0-202.581334-80.213333v-40.704a42.666667 42.666667 0 0 0-85.333333 0v38.741333C272.213333-11.52 108.288 147.2 108.288 342.784a42.666667 42.666667 0 0 0 85.333333 0C193.706667 186.026667 335.36 57.258667 512 57.258667c71.594667 0 139.264 21.333333 194.048 59.221333l-41.642667 41.642667A272.384 272.384 0 0 0 239.616 384V582.912L120.832 701.696a42.666667 42.666667 0 0 0-4.949333 54.442667l4.949333 5.973333a42.666667 42.666667 0 0 0 60.330667 0l78.506666-78.506667A272.469333 272.469333 0 0 0 512 853.333333zM324.864 497.664V384a187.050667 187.050667 0 0 1 277.418667-163.84l-277.333334 277.504zM512 768a187.136 187.136 0 0 1-183.978667-152.917333L665.770667 277.333333c20.992 30.208 33.28 66.986667 33.28 106.581334V580.949333C699.050667 684.202667 615.338667 768 512 768z"  horiz-adv-x="1024" />

    
    <glyph glyph-name="icon-maikefengmoren" unicode="&#59099;" d="M872.96 385.450667a42.666667 42.666667 0 0 0 42.666667-42.666667c0-97.621333-41.130667-189.098667-113.237334-257.706667a416.256 416.256 0 0 0-237.824-110.08v-40.618666a42.666667 42.666667 0 0 0-85.333333 0v38.741333C272.213333-11.52 108.288 147.2 108.288 342.784a42.666667 42.666667 0 0 0 85.333333 0C193.706667 186.026667 335.36 57.258667 512 57.258667c89.002667 0 171.861333 32.938667 231.594667 89.685333 55.466667 52.821333 86.784 122.197333 86.784 195.84a42.666667 42.666667 0 0 0 42.666666 42.666667zM512 853.333333a272.384 272.384 0 0 0 272.384-272.384V384a272.384 272.384 0 1 0-544.768 0V580.949333A272.384 272.384 0 0 0 512 853.333333z m0-85.333333c-103.253333 0-187.050667-83.797333-187.050667-187.050667V384a187.050667 187.050667 0 1 1 374.101334 0V580.949333C699.050667 684.202667 615.338667 768 512 768z"  horiz-adv-x="1024" />

    
    <glyph glyph-name="icon-maikefengfayanzhong" unicode="&#59100;" d="M872.96 385.450667a42.666667 42.666667 0 0 0 42.666667-42.666667c0-97.621333-41.130667-189.098667-113.237334-257.706667a416.256 416.256 0 0 0-237.824-110.08v-40.618666a42.666667 42.666667 0 0 0-85.333333 0v38.741333C272.213333-11.52 108.288 147.2 108.288 342.784a42.666667 42.666667 0 0 0 85.333333 0C193.706667 186.026667 335.36 57.258667 512 57.258667c89.002667 0 171.861333 32.938667 231.594667 89.685333 55.466667 52.821333 86.784 122.197333 86.784 195.84a42.666667 42.666667 0 0 0 42.666666 42.666667zM512 853.333333a272.384 272.384 0 0 0 272.384-272.384V384a272.384 272.384 0 1 0-544.768 0V580.949333A272.384 272.384 0 0 0 512 853.333333z m0-85.333333c-103.253333 0-187.050667-83.797333-187.050667-187.050667V384c0-85.418667 57.173333-157.525333 135.509334-179.882667l2.901333 3.413334c19.2 25.6 43.178667 85.333333 47.530667 137.386666 5.546667 65.109333-1.194667 117.76-25.941334 155.904a42.666667 42.666667 0 1 0 71.594667 46.421334c37.546667-57.770667 46.336-127.146667 39.424-209.493334a411.648 411.648 0 0 0-37.461333-134.912A187.050667 187.050667 0 0 1 699.050667 384V580.949333C699.050667 684.202667 615.338667 768 512 768z"  horiz-adv-x="1024" />

    
    <glyph glyph-name="icon-gongjuchushihua" unicode="&#59088;" d="M591.329882 670.117647v-78.546823c4.427294-1.415529 8.794353-2.981647 13.131294-4.668236 99.508706-38.490353 166.550588-135.378824 166.550589-244.946823 0-144.715294-115.922824-262.144-259.011765-262.144-143.088941 0-259.011765 117.428706-259.011765 262.144a262.866824 262.866824 0 0 0 91.256471 199.770353 18.070588 18.070588 0 0 0 23.612235-27.407059A226.725647 226.725647 0 0 1 289.129412 341.955765c0-124.867765 99.84-226.002824 222.870588-226.002824 123.030588 0 222.870588 101.135059 222.870588 226.002824 0 94.569412-57.825882 178.115765-143.450353 211.245176l-0.090353 0.030118v-92.16l-145.829647 105.411765L591.329882 670.117647zM512 399.058824a60.235294 60.235294 0 1 0 0-120.470589 60.235294 60.235294 0 0 0 0 120.470589z"  horiz-adv-x="1024" />

    
    <glyph glyph-name="icon-huabi" unicode="&#59089;" d="M692.224 641.837176l41.050353-41.08047a78.305882 78.305882 0 0 0 0-110.772706l-329.788235-326.174118h372.284235a18.070588 18.070588 0 1 0 0-36.141176H358.098824a78.305882 78.305882 0 0 0-18.462118-4.818824l-46.049882-6.204235a76.589176 76.589176 0 0 0-86.799059 75.565177l-0.180706 47.585882a78.305882 78.305882 0 0 0 19.425882 51.952941l3.915294 4.156235 284.912941 280.395294-0.722823 0.692706 19.275294 17.618824 48.519529 47.676235a78.305882 78.305882 0 0 0 110.320942-0.451765z m-151.401412-90.684235l-285.515294-280.997647-2.891294-3.102118a42.164706 42.164706 0 0 1-9.697882-27.105882l0.180706-47.585882a40.448 40.448 0 0 1 16.082823-32.105412 18.070588 18.070588 0 0 0 10.842353 3.584l80.143059-0.090353a42.164706 42.164706 0 0 1 8.854588 6.716235l284.491294 281.419294-102.490353 99.267765z m66.43953 65.355294l-40.96-40.237176 102.460235-99.20753 38.761412 38.309647 2.951529 3.222589a42.164706 42.164706 0 0 1-2.740706 56.621176l-41.08047 41.080471a42.164706 42.164706 0 0 1-59.392 0.240941z"  horiz-adv-x="1024" />

    
    <glyph glyph-name="icon-xiantiao" unicode="&#59090;" d="M533.293176 605.786353l234.255059 63.879529-63.879529-234.255058-72.402824 72.402823L281.991529 158.569412a18.070588 18.070588 0 0 0-25.539764 25.539764L605.665882 533.383529l-72.402823 72.402824z"  horiz-adv-x="1024" />

    
    <glyph glyph-name="icon-xiangsu" unicode="&#59091;" d="M336.594824 624.941176a127.548235 127.548235 0 0 0 0-255.09647H216.847059v-208.715294a18.070588 18.070588 0 0 0-36.141177 0V624.941176h155.888942z m160.225882-20.359529a17.016471 17.016471 0 0 0 23.67247-4.156235l130.740706-186.75953 130.770824 186.729412a17.016471 17.016471 0 1 0 27.888941-19.486118L671.984941 384l137.908706-196.939294a17.016471 17.016471 0 0 0-1.837176-21.684706l-2.349177-1.987765a17.016471 17.016471 0 0 0-23.702588 4.156236l-130.770824 186.789647-130.740706-186.789647a17.016471 17.016471 0 1 0-27.888941 19.516235L630.482824 384l-137.878589 196.909176a17.016471 17.016471 0 0 0 1.837177 21.684706z m-160.225882-15.781647H216.847059v-182.814118h119.747765a91.407059 91.407059 0 1 1 0 182.814118z"  horiz-adv-x="1024" />

    
    <glyph glyph-name="icon-ziti" unicode="&#59092;" d="M517.150118 678.339765l239.284706-513.174589a18.070588 18.070588 0 0 0-32.737883-15.269647l-78.305882 167.875765-0.873412-0.030118h-290.032941L276.178824 149.895529a18.070588 18.070588 0 0 0-32.737883 15.269647l239.284706 513.174589a18.070588 18.070588 0 0 0 17.167059 10.420706 18.070588 18.070588 0 0 0 17.227294-10.420706zM499.952941 629.699765L371.350588 353.882353h257.234824L499.952941 629.699765z"  horiz-adv-x="1024" />

    
    <glyph glyph-name="icon-sehuan" unicode="&#59093;" d="M800.466824 414.418824c-12.047059-166.038588-175.043765-284.220235-319.247059-272.745412-67.644235 5.391059-90.744471 25.720471-109.808941 43.459764-41.743059 38.881882-15.872 89.780706-59.512471 89.780706l-43.791059-0.512c-53.609412-0.240941-87.070118 6.174118-87.401412 76.498824-0.692706 156.491294 143.058824 289.189647 300.483765 302.772706 157.394824 13.552941 331.294118-73.185882 319.247059-239.224471zM492.513882 618.315294l-8.222117-0.602353-7.981177-0.813176c-140.649412-16.143059-260.035765-135.619765-259.463529-265.818353 0.120471-25.088 3.734588-33.008941 9.426823-35.900236 6.625882-3.343059 16.865882-4.608 42.255059-4.547764l43.369412 0.451764c38.279529 0 55.205647-19.064471 64.451765-53.549176l4.427294-17.829647c1.385412-5.360941 2.379294-8.432941 3.644235-11.384471l1.716706-3.614117c2.469647-4.879059 5.632-9.095529 9.908706-13.101177 23.582118-21.985882 40.538353-30.117647 88.003765-33.882353 132.517647-10.541176 270.336 101.195294 280.365176 239.375059 9.005176 124.265412-118.814118 211.034353-271.902118 201.216z m18.793412-265.788235a60.235294 60.235294 0 1 0 0-120.470588 60.235294 60.235294 0 0 0 0 120.470588z m-150.588235 120.470588a30.117647 30.117647 0 1 0 0-60.235294 30.117647 30.117647 0 0 0 0 60.235294z m271.058823 30.117647a30.117647 30.117647 0 1 0 0-60.235294 30.117647 30.117647 0 0 0 0 60.235294zM490.917647 538.834824a30.117647 30.117647 0 1 0 0-60.235295 30.117647 30.117647 0 0 0 0 60.235295z"  horiz-adv-x="1024" />

    
    <glyph glyph-name="icon-xingzhuang" unicode="&#59094;" d="M692.705882 673.129412A48.188235 48.188235 0 0 0 740.894118 624.941176v-421.647058a48.188235 48.188235 0 0 0-48.188236-48.188236H271.058824A48.188235 48.188235 0 0 0 222.870588 203.294118V624.941176A48.188235 48.188235 0 0 0 271.058824 673.129412h421.647058z m0-36.141177H271.058824a12.047059 12.047059 0 0 1-12.047059-12.047059v-421.647058c0-6.625882 5.421176-12.047059 12.047059-12.047059h421.647058a12.047059 12.047059 0 0 1 12.047059 12.047059V624.941176a12.047059 12.047059 0 0 1-12.047059 12.047059z"  horiz-adv-x="1024" />

    
    <glyph glyph-name="icon-yingguangbi" unicode="&#59095;" d="M666.202353 650.872471a48.188235 48.188235 0 0 0 64.150588-4.608l72.342588-74.902589a48.188235 48.188235 0 0 0 2.379295-64.301176l-116.254118-139.745882a17.980235 17.980235 0 0 0-9.09553-5.872942 213.835294 213.835294 0 0 0-212.630588-236.453647c-47.224471 0-135.529412 26.202353-267.173647 78.607059l-60.385882 24.485647 32.195765 18.432c25.088 14.366118 42.014118 27.286588 50.537411 38.038588 13.854118 17.468235 22.738824 35.147294 27.919059 53.217883l2.168471 7.830588c0.813176 3.373176 1.355294 6.384941 1.987764 11.173647l2.198589 18.974118 0.542117 3.523764a213.895529 213.895529 0 0 0 270.908236 164.592942zM467.094588 516.517647a177.784471 177.784471 0 0 1-173.025882-137.005176l-1.596235-7.649883-1.505883-13.974588-0.63247-4.728471a186.428235 186.428235 0 0 0-5.421177-25.359058 188.536471 188.536471 0 0 0-34.334117-65.716706c-5.963294-7.529412-13.974588-15.119059-24.094118-22.889412l-6.324706-4.728471 24.154353-9.426823 23.070118-8.824471c97.641412-36.713412 164.683294-55.085176 199.68-55.085176a177.694118 177.694118 0 0 1 62.644705 344.033882 17.408 17.408 0 0 0-8.673882 2.95153 175.164235 175.164235 0 0 1-53.940706 8.402823z m237.266824 104.628706a12.047059 12.047059 0 0 1-16.022588 1.144471l-121.645177-94.208a214.437647 214.437647 0 0 0 104.508235-125.409883l106.104471 127.518118a12.047059 12.047059 0 0 1-0.602353 16.052706z"  horiz-adv-x="1024" />

    
    <glyph glyph-name="icon-qingchu" unicode="&#59096;" d="M481.882353 685.176471a60.235294 60.235294 0 0 0 60.235294-60.235295v-120.470588h150.588235a30.117647 30.117647 0 0 0 30.117647-30.117647v-30.117647a30.117647 30.117647 0 0 0-30.117647-30.117647h-21.082353l69.692236-232.297412A30.117647 30.117647 0 0 0 712.463059 143.058824H277.684706a30.117647 30.117647 0 0 0-29.515294 36.020705L295.152941 414.117647H271.058824a30.117647 30.117647 0 0 0-30.117648 30.117647v30.117647a30.117647 30.117647 0 0 0 30.117648 30.117647h150.588235V624.941176a60.235294 60.235294 0 0 0 60.235294 60.235295z m158.268235-271.058824H325.842824l-48.188236-240.941176h75.083294l18.913883 134.324705a18.070588 18.070588 0 1 0 35.779764-5.029647L389.270588 173.176471h323.192471l-72.312471 240.941176zM692.705882 474.352941H271.058824v-30.117647h421.647058v30.117647z m-210.823529 174.682353a24.094118 24.094118 0 0 1-24.094118-24.094118v-114.447058h48.188236V624.941176a24.094118 24.094118 0 0 1-24.094118 24.094118z"  horiz-adv-x="1024" />

    
    <glyph glyph-name="icon-xiangpica" unicode="&#59097;" d="M612.261647 626.838588l158.177882-158.418823a78.426353 78.426353 0 0 0-0.060235-110.712471l-54.362353-54.512941a18.311529 18.311529 0 0 0-0.993882-1.084235l-1.807059-1.505883-150.166588-150.196706h240.941176a18.070588 18.070588 0 0 0 0-36.141176h-445.741176a18.070588 18.070588 0 0 0-16.865883 11.565176l-120.410353 120.470589a78.305882 78.305882 0 0 0-3.312941 107.248941l4.397177 4.577882 280.515764 269.854118a78.305882 78.305882 0 0 0 109.688471-1.144471z m-159.081412-96.527059l-206.004706-198.174117-3.403294-3.614118a42.164706 42.164706 0 0 1 2.740706-56.621176l118.66353-118.66353h149.62447l161.310118 161.310118-220.641883 213.052235a18.160941 18.160941 0 0 0-2.288941 2.710588z m74.420706 71.589647L478.870588 555.068235c0.602353-0.451765 1.174588-0.933647 1.716706-1.475764l221.06353-213.473883 43.158588 43.128471a42.285176 42.285176 0 0 1 0.030117 59.693176L586.691765 601.298824a42.164706 42.164706 0 0 1-59.090824 0.602352z"  horiz-adv-x="1024" />

    
    <glyph glyph-name="icon-xiayiye" unicode="&#59086;" d="M356.053333 666.154667a25.6 25.6 0 0 0 39.168 33.024l280.746667-332.885334-281.301333-312.192a25.6 25.6 0 0 0-38.058667 34.261334l251.434667 279.04-251.989334 298.752z"  horiz-adv-x="1024" />

    
    <glyph glyph-name="icon-shangyiye" unicode="&#59087;" d="M669.909333 666.154667a25.6 25.6 0 0 1-39.125333 33.024l-280.746667-332.885334 281.301334-312.192a25.6 25.6 0 0 1 38.016 34.261334l-251.392 279.04L669.866667 666.154667z"  horiz-adv-x="1024" />

    
    <glyph glyph-name="icon-suoxiao" unicode="&#59081;" d="M469.333333 750.933333a324.266667 324.266667 0 0 0 269.952-504.021333l137.301334-137.258667a25.6 25.6 0 0 0-36.181334-36.224l-133.034666 133.034667A324.266667 324.266667 0 1 0 469.333333 750.933333z m0-51.2a273.066667 273.066667 0 1 1 0-546.133333 273.066667 273.066667 0 0 1 0 546.133333z m145.066667-230.4a25.6 25.6 0 0 0 0-51.2H324.266667a25.6 25.6 0 0 0 0 51.2h290.133333z"  horiz-adv-x="1024" />

    
    <glyph glyph-name="icon-fangda" unicode="&#59082;" d="M469.333333 750.933333a324.266667 324.266667 0 0 0 265.045334-511.146666l139.349333-139.349334a25.6 25.6 0 1 0-36.181333-36.181333l-136.106667 135.978667A324.266667 324.266667 0 1 0 469.333333 750.933333z m0-51.2a273.066667 273.066667 0 1 1 0-546.133333 273.066667 273.066667 0 0 1 0 546.133333z m0-85.333333a25.6 25.6 0 0 0 25.6-25.6V469.333333h119.466667a25.6 25.6 0 0 0 0-51.2h-119.466667V298.666667a25.6 25.6 0 0 0-51.2 0v119.466666H324.266667a25.6 25.6 0 0 0 0 51.2h119.466666V588.8a25.6 25.6 0 0 0 25.6 25.6z"  horiz-adv-x="1024" />

    
    <glyph glyph-name="icon-yidong" unicode="&#59083;" d="M478.890667 771.242667a46.933333 46.933333 0 0 0 66.218666-0.170667l115.456-115.626667a25.6 25.6 0 0 0-36.224-36.181333l-85.802666 85.930667V435.2h270.933333L733.866667 510.805333a25.6 25.6 0 1 0 36.181333 36.266667l115.626667-115.498667a46.933333 46.933333 0 0 0 0.128-66.218666l-113.706667-114.773334a25.6 25.6 0 1 0-36.352 36.010667L832.128 384h-293.589333v-290.773333l85.802666 85.888a25.6 25.6 0 0 0 36.266667-36.181334l-115.498667-115.626666a46.933333 46.933333 0 0 0-66.218666-0.170667l-114.773334 113.706667a25.6 25.6 0 0 0 36.053334 36.394666l87.168-86.4V384H196.181333l96.426667-97.408a25.6 25.6 0 0 0 2.858667-32.682667l-2.986667-3.498666a25.6 25.6 0 0 0-36.224 0.170666l-113.706667 114.773334a46.933333 46.933333 0 0 0 0.170667 66.218666l115.626667 115.456a25.6 25.6 0 0 0 36.181333-36.224L218.794667 435.2h268.544V707.541333L400.170667 621.141333a25.6 25.6 0 0 0-32.682667-2.773333l-3.541333 2.986667a25.6 25.6 0 0 0 0.170666 36.181333z"  horiz-adv-x="1024" />

    
    <glyph glyph-name="icon-huanyuan" unicode="&#59084;" d="M768 750.933333A110.933333 110.933333 0 0 0 878.933333 640v-512a110.933333 110.933333 0 0 0-110.933333-110.933333H256A110.933333 110.933333 0 0 0 145.066667 128V640A110.933333 110.933333 0 0 0 256 750.933333h512z m0-51.2H256A59.733333 59.733333 0 0 1 196.266667 640v-512A59.733333 59.733333 0 0 1 256 68.266667h512a59.733333 59.733333 0 0 1 59.733333 59.733333V640A59.733333 59.733333 0 0 1 768 699.733333zM366.933333 554.666667a25.6 25.6 0 0 0 25.6-25.6v-290.133334a25.6 25.6 0 0 0-51.2 0V529.066667a25.6 25.6 0 0 0 25.6 25.6z m256 0a25.6 25.6 0 0 0 25.6-25.6v-290.133334a25.6 25.6 0 0 0-51.2 0V529.066667a25.6 25.6 0 0 0 25.6 25.6z m-128-213.333334a25.6 25.6 0 1 0 0-51.2 25.6 25.6 0 0 0 0 51.2z m0 128a25.6 25.6 0 1 0 0-51.2 25.6 25.6 0 0 0 0 51.2z"  horiz-adv-x="1024" />

    
    <glyph glyph-name="icon-shouqi" unicode="&#59085;" d="M769.578667 354.517333a25.6 25.6 0 0 0-3.072-36.096l-199.253334-168.021333a68.266667 68.266667 0 0 0-89.685333 1.450667l-185.429333 167.125333a25.6 25.6 0 0 0 34.261333 38.016l185.429333-167.082667a17.066667 17.066667 0 0 1 22.442667-0.384l199.253333 168.021334a25.6 25.6 0 0 0 36.053334-3.029334z m0 213.333334a25.6 25.6 0 0 0-3.072-36.096l-199.253334-168.021334a68.266667 68.266667 0 0 0-89.685333 1.450667L292.138667 532.309333a25.6 25.6 0 1 0 34.261333 38.016l185.429333-167.082666a17.066667 17.066667 0 0 1 22.442667-0.384l199.253333 168.021333a25.6 25.6 0 0 0 36.053334-3.029333z"  horiz-adv-x="1024" />

    
    <glyph glyph-name="icon-baiban" unicode="&#59076;" d="M961.408 768a27.008 27.008 0 1 0 0-54.058667l-54.058667 0.042667v-531.456h54.058667a27.008 27.008 0 1 0 0-54.058667l-304.213333 0.042667 48.64-133.546667a25.6 25.6 0 0 0-11.52-31.061333l-3.84-1.706667-2.645334-1.024a25.6 25.6 0 0 0-32.810666 15.317334l-55.338667 152.021333h-52.608V-17.066667a25.6 25.6 0 0 0-21.418667-25.258666l-4.181333-0.341334h-2.816a25.6 25.6 0 0 0-25.6 25.6l-0.042667 145.578667h-65.28l-55.296-152.021333a25.6 25.6 0 0 0-32.853333-15.317334l-2.645333 0.981334a25.6 25.6 0 0 0-15.274667 32.853333l48.554667 133.504H69.674667a27.008 27.008 0 1 0 0 54.016h52.650666V713.984H69.674667a27.008 27.008 0 0 0 0 54.016h891.733333zM853.333333 713.984H176.341333v-531.456H853.333333V713.984z m-173.354666-177.322667a27.008 27.008 0 1 0 33.92-42.112l-130.56-105.088a36.010667 36.010667 0 0 0-50.133334 9.045334l-50.773333 73.045333-104.021333-120.661333a27.008 27.008 0 1 0-40.96 35.285333l119.210666 138.24a36.010667 36.010667 0 0 0 56.874667-2.944l52.992-76.245333z"  horiz-adv-x="1024" />

    
    <glyph glyph-name="icon-biaodan" unicode="&#59077;" d="M633.514667 832c38.229333 0 70.570667-25.002667 80.896-59.264h114.090666c37.290667 0 67.498667-29.653333 67.498667-66.261333v-704.213334c0-36.608-30.208-66.261333-67.498667-66.261333H195.498667C158.208-64 128-34.346667 128 2.261333V706.474667c0 36.608 30.208 66.261333 67.498667 66.261333h103.893333c10.325333 34.261333 42.666667 59.264 80.896 59.264h253.226667zM300.202667 723.029333H195.498667a16.725333 16.725333 0 0 1-16.853334-16.554666v-704.213334c0-9.130667 7.552-16.554667 16.853334-16.554666h633.002666a16.725333 16.725333 0 0 1 16.853334 16.554666V706.474667a16.725333 16.725333 0 0 1-16.853334 16.554666h-114.901333a84.309333 84.309333 0 0 0-80.085333-56.746666H380.288a84.309333 84.309333 0 0 0-80.085333 56.746666z m483.328-356.266666a25.642667 25.642667 0 0 0 35.754666 1.749333 24.533333 24.533333 0 0 0 1.749334-35.114667l-129.365334-140.117333-1.706666-1.834667a47.018667 47.018667 0 0 0-65.706667 0.341334L551.082667 264.533333a24.533333 24.533333 0 0 0 0.170666 35.157334 25.642667 25.642667 0 0 0 35.84-0.213334l70.101334-69.546666z m-192.213334 116.053333c37.248 0 67.498667-29.696 67.498667-66.304v-82.901333a25.088 25.088 0 0 0-25.301333-24.874667 25.088 25.088 0 0 0-25.344 24.874667v82.901333a16.725333 16.725333 0 0 1-16.853334 16.554667H422.485333a16.725333 16.725333 0 0 1-16.853333-16.554667v-165.674667c0-9.173333 7.552-16.597333 16.853333-16.597333h69.418667c13.994667 0 25.344-11.093333 25.344-24.832a25.088 25.088 0 0 0-25.344-24.874667H422.485333c-37.248 0-67.498667 29.696-67.498666 66.304v165.674667c0 36.608 30.250667 66.261333 67.498666 66.261333z m42.197334 299.477333H380.288a33.450667 33.450667 0 0 1-33.706667-33.152c0-18.304 15.061333-33.109333 33.706667-33.109333h253.226667a33.450667 33.450667 0 0 1 33.706666 33.109333 33.450667 33.450667 0 0 1-33.706666 33.152z"  horiz-adv-x="1024" />

    
    <glyph glyph-name="icon-zhuomiangongxiang" unicode="&#59078;" d="M759.04 29.184a26.965333 26.965333 0 1 0 0-53.888H264.96a26.965333 26.965333 0 0 0 0 53.888zM871.253333 810.666667C908.501333 810.666667 938.666667 780.501333 938.666667 743.296V204.373333c0-37.205333-30.165333-67.328-67.370667-67.328H152.746667A67.370667 67.370667 0 0 0 85.333333 204.330667V743.296C85.333333 780.501333 115.498667 810.666667 152.704 810.666667H871.253333z m0-53.888H152.746667a13.482667 13.482667 0 0 1-13.482667-13.482667V204.373333c0-7.424 6.058667-13.44 13.482667-13.44H871.253333a13.482667 13.482667 0 0 1 13.482667 13.44V743.296a13.482667 13.482667 0 0 1-13.482667 13.482667zM563.114667 626.346667a21.333333 21.333333 0 0 0 30.208 0l105.685333-105.728a21.333333 21.333333 0 0 0 0-30.165334l-105.685333-105.728a21.333333 21.333333 0 0 0-36.437334 15.104v48.981334c-112.256 0-190.805333-44.416-246.997333-123.008 22.4 112.256 89.770667 215.210667 246.997333 237.653333v47.786667a21.333333 21.333333 0 0 0 6.229334 15.104z"  horiz-adv-x="1024" />

    
    <glyph glyph-name="icon-wendang" unicode="&#59079;" d="M725.333333 661.333333a42.666667 42.666667 0 0 0 42.666667-42.666666v-640a42.666667 42.666667 0 0 0-42.666667-42.666667H128a42.666667 42.666667 0 0 0-42.666667 42.666667v640a42.666667 42.666667 0 0 0 42.666667 42.666666h597.333333z m-8.533333-51.2H136.533333v-622.933333h580.266667V610.133333z m115.797333 183.466667a68.266667 68.266667 0 0 0 68.266667-68.266667v-639.274666c0-37.717333-30.549333-68.266667-66.730667-68.266667l-18.645333-1.066667a25.6 25.6 0 0 0-2.986667 51.114667l20.096 1.152a17.066667 17.066667 0 0 1 17.066667 17.066667V725.290667a17.066667 17.066667 0 0 1-17.066667 17.066666H278.186667c-9.429333 0-17.066667-7.637333-17.066667-18.005333l-0.896-23.04a25.6 25.6 0 0 0-51.2 1.962667l1.152 28.245333A68.266667 68.266667 0 0 0 278.186667 793.557333zM448 320a21.333333 21.333333 0 0 0 21.333333-21.333333v-8.533334a21.333333 21.333333 0 0 0-21.333333-21.333333h-213.333333a21.333333 21.333333 0 0 0-21.333334 21.333333V298.666667a21.333333 21.333333 0 0 0 21.333334 21.333333h213.333333z m-21.333333-21.333333v-8.533334l0.128 2.133334 0.298666 2.133333A21.418667 21.418667 0 0 0 426.666667 298.666667z m149.333333 149.333333a21.333333 21.333333 0 0 0 21.333333-21.333333v-8.533334a21.333333 21.333333 0 0 0-21.333333-21.333333h-341.333333a21.333333 21.333333 0 0 0-21.333334 21.333333V426.666667a21.333333 21.333333 0 0 0 21.333334 21.333333h341.333333z m-21.333333-21.333333v-8.533334l0.128 2.133334 0.298666 2.133333A21.418667 21.418667 0 0 0 554.666667 426.666667z"  horiz-adv-x="1024" />

    
    <glyph glyph-name="icon-shezhi" unicode="&#59080;" d="M583.765333 836.266667a68.266667 68.266667 0 0 0 68.266667-68.266667v-60.245333c14.165333-6.570667 27.861333-14.08 40.96-22.442667l51.114667 29.525333a68.266667 68.266667 0 0 0 93.269333-25.002666l80.768-139.946667a68.266667 68.266667 0 0 0-24.96-93.269333l-44.757333-25.813334a331.818667 331.818667 0 0 0 0-54.656l44.757333-25.856a68.266667 68.266667 0 0 0 24.96-93.269333l-80.768-139.946667a68.266667 68.266667 0 0 0-93.269333-24.96l-51.114667 29.482667a348.970667 348.970667 0 0 0-40.96-22.442667v-60.245333a68.266667 68.266667 0 0 0-68.266667-68.266667H422.144a68.266667 68.266667 0 0 0-68.266667 68.266667v60.245333a348.970667 348.970667 0 0 0-40.96 22.442667l-51.157333-29.482667a68.266667 68.266667 0 0 0-93.226667 24.96l-80.810666 139.946667a68.266667 68.266667 0 0 0 25.002666 93.269333l44.757334 25.856a331.818667 331.818667 0 0 0 0 54.656l-44.8 25.813334a68.266667 68.266667 0 0 0-24.96 93.269333l80.810666 139.946667a68.266667 68.266667 0 0 0 93.226667 25.002666l51.114667-29.525333c8.746667 5.589333 17.749333 10.794667 27.008 15.573333l13.994666 6.912V768a68.266667 68.266667 0 0 0 68.266667 68.266667h161.621333z m0-51.2H422.144a17.066667 17.066667 0 0 1-17.066667-17.066667v-94.293333l-16-6.442667a297.728 297.728 0 0 1-60.373333-32.981333l-13.397333-9.472-79.146667 45.653333a17.066667 17.066667 0 0 1-23.296-6.229333l-80.810667-139.946667a17.066667 17.066667 0 0 1 6.272-23.296l74.069334-42.752-2.304-17.066667a279.424 279.424 0 0 1 0-75.392l2.304-17.066666-74.069334-42.752a17.066667 17.066667 0 0 1-6.272-23.338667l80.810667-139.946667a17.066667 17.066667 0 0 1 23.296-6.229333l79.146667 45.653333 13.397333-9.429333c18.730667-13.226667 38.997333-24.32 60.373333-33.024l16-6.442667v-94.293333c0-9.386667 7.68-17.066667 17.066667-17.066667h161.621333a17.066667 17.066667 0 0 1 17.066667 17.066667v94.293333l16 6.485334a297.728 297.728 0 0 1 60.373333 32.981333l13.354667 9.472 79.146667-45.696a17.066667 17.066667 0 0 1 23.338666 6.229333l80.768 139.946667a17.066667 17.066667 0 0 1-6.229333 23.338667l-74.112 42.752 2.346667 17.066666a279.424 279.424 0 0 1 0 75.434667l-2.346667 17.024 74.112 42.752a17.066667 17.066667 0 0 1 6.229333 23.296l-80.768 139.946667a17.066667 17.066667 0 0 1-23.338666 6.229333l-79.146667-45.653333-13.354667 9.472a297.728 297.728 0 0 1-60.373333 32.981333l-16 6.442667V768a17.066667 17.066667 0 0 1-17.066667 17.066667z m-80.810666-236.245334a145.365333 145.365333 0 1 0 0-290.730666 145.365333 145.365333 0 0 0 0 290.730666z m0-51.2a94.165333 94.165333 0 1 1 0-188.330666 94.165333 94.165333 0 0 1 0 188.330666z"  horiz-adv-x="1024" />

    
    <glyph glyph-name="icon-guanbi" unicode="&#59075;" d="M789.76 618.24a30.72 30.72 0 1 1-43.52 43.434667L512 427.434667l-234.24 234.24a30.72 30.72 0 1 1-43.52-43.392L468.608 384 234.24 149.674667a30.72 30.72 0 1 1 43.434667-43.392l234.325333 234.282666 234.24-234.282666a30.72 30.72 0 1 1 43.434667 43.392L555.52 384l234.24 234.24z"  horiz-adv-x="1024" />

    
    <glyph glyph-name="icon-gengduo" unicode="&#59074;" d="M512 76.8a102.4 102.4 0 1 0 0-204.8 102.4 102.4 0 0 0 0 204.8z m0 409.6a102.4 102.4 0 1 0 0-204.8 102.4 102.4 0 0 0 0 204.8z m0 409.6a102.4 102.4 0 1 0 0-204.8 102.4 102.4 0 0 0 0 204.8z"  horiz-adv-x="1024" />

    


  </font>
</defs>
</svg>
